<svg xmlns="http://www.w3.org/2000/svg" width="17" height="17" viewBox="0 0 17 17"><path d="M15.5913333,6.1605 L12.7243333,3.2935 L9.85733333,0.426166667 C9.62,0.189 9.30966667,0.0715 8.99983333,0.0708333333 C8.6895,0.0708333333 8.37983333,0.189 8.14316667,0.425666667 L5.27766667,3.2915 L2.8725,5.69633333 L2.41183333,6.157 L1.91483333,6.654 L1.43566667,7.13333333 L0.957166667,7.61166667 C0.7835,7.78533333 0.639333333,7.94066667 0.521666667,8.09083333 C0.402666667,8.2415 0.310333333,8.387 0.238666667,8.54066667 C0.166166667,8.69383333 0.115666667,8.85633333 0.0815,9.041 C0.0473333333,9.2255 0.0295,9.43216667 0.0248333333,9.67333333 L0.0186666667,11.2543333 L0.0125,12.837 L0.00633333333,14.4183333 L2.22044605e-16,16 L1.5855,15.9976667 L3.1715,15.9963333 L4.75816667,15.9941667 L6.34416667,15.9928333 C6.5855,15.9883333 6.79266667,15.971 6.9765,15.936 C7.161,15.902 7.323,15.8506667 7.47683333,15.7788333 C7.63066667,15.707 7.77616667,15.6148333 7.92666667,15.4958333 C8.077,15.3783333 8.23233333,15.234 8.40583333,15.0606667 L8.88433333,14.582 L9.36366667,14.1026667 L9.84283333,13.6233333 C9.84283333,13.6233333 9.842,13.6226667 9.842,13.6225 C9.848,13.6166667 9.8545,13.6118333 9.8605,13.6056667 L10.3213333,13.1448333 L12.7263333,10.7398333 L15.592,7.874 C15.8286667,7.6375 15.9468333,7.328 15.9468333,7.0175 C15.9463333,6.70816667 15.8286667,6.39766667 15.5913333,6.1605 L15.5913333,6.1605 Z M4.20345458,13.9374546 C3.9093664,14.2310418 3.52509786,14.3768333 3.14283333,14.3768333 C2.75806379,14.3748293 2.37429626,14.2285367 2.08221209,13.9374546 C1.79012792,13.6448694 1.64433634,13.2606009 1.64283333,12.8768333 C1.64283333,12.4945688 1.78862492,12.1108013 2.08221209,11.8167131 C2.37429626,11.5246289 2.75806379,11.3788373 3.14283333,11.3768333 C3.52710187,11.3788373 3.91137041,11.5246289 4.20345458,11.8167131 C4.49503774,12.1087973 4.64133033,12.4930658 4.64283333,12.8768333 C4.64082933,13.2606009 4.49503774,13.6448694 4.20345458,13.9374546 L4.20345458,13.9374546 Z" transform="rotate(-270 8 9) translate(0 1)" fill="#000" fill-rule="evenodd"/></svg>